Coordinates
version=1
nRows=17
nColumns=40
inDegrees=yes

Units are S.I. units (second, meters, Newtons, ...)
Angles are in degrees.

endheader
time	pelvis_tilt	pelvis_list	pelvis_rotation	pelvis_tx	pelvis_ty	pelvis_tz	hip_flexion_r	hip_adduction_r	hip_rotation_r	knee_angle_r	knee_angle_r_beta	ankle_angle_r	subtalar_angle_r	mtp_angle_r	hip_flexion_l	hip_adduction_l	hip_rotation_l	knee_angle_l	knee_angle_l_beta	ankle_angle_l	subtalar_angle_l	mtp_angle_l	lumbar_extension	lumbar_bending	lumbar_rotation	arm_flex_r	arm_add_r	arm_rot_r	elbow_flex_r	pro_sup_r	wrist_flex_r	wrist_dev_r	arm_flex_l	arm_add_l	arm_rot_l	elbow_flex_l	pro_sup_l	wrist_flex_l	wrist_dev_l
     26.36378571	     -3.95515765	     -5.38079408	      7.46464393	      0.96439352	      0.91942107	      0.53154094	      1.22732100	      3.83640379	    -18.18847058	     13.64445861	     13.64445861	     16.85293039	     -6.51434111	     -3.01293953	     28.73026766	     -7.80512615	      3.73412416	     24.48799761	     24.48799761	      7.65886000	     -5.46723701	      4.18487777	     -9.02385467	      3.10092530	      1.80233148	     52.83637960	    -19.92074333	     -4.68421905	    104.69966294	     44.30659764	      0.00000000	      0.00000000	    -17.07704880	     -7.66658109	      3.92213642	     30.06132110	     45.05901436	      0.00000000	      0.00000000
     26.38257143	     -4.08040527	     -5.47913751	      7.68364436	      0.96480634	      0.91852577	      0.52733094	      0.84295696	      3.71958972	    -18.40758350	     13.51937021	     13.51937021	     17.00956574	     -6.38398151	     -2.97115164	     28.92580996	     -7.61405047	      3.68844467	     25.35488236	     25.35488236	      7.79124938	     -5.64370474	      3.45461686	     -8.93805920	      3.03001097	      1.86956931	     53.52588687	    -19.60252968	     -4.60551341	    105.21301210	     44.29845652	      0.00000000	      0.00000000	    -16.81627700	     -7.77073405	      3.84670634	     30.17548201	     45.08133601	      0.00000000	      0.00000000
     26.40135714	     -4.18198591	     -5.54540480	      7.83093203	      0.96538722	      0.91780102	      0.52299758	      0.45613405	      3.54576364	    -18.56599827	     13.46382898	     13.46382898	     17.11005723	     -6.27531386	     -2.91047744	     29.04366344	     -7.38516563	      3.71760677	     26.29610370	     26.29610370	      8.01400807	     -6.07674765	      2.85076403	     -8.85862157	      2.92532316	      1.97854159	     53.96674924	    -19.27350413	     -4.51362953	    105.56674395	     44.29149928	      0.00000000	      0.00000000	    -16.37213660	     -7.90266915	      3.76042875	     30.37964452	     45.10574591	      0.00000000	      0.00000000
     26.42014286	     -4.26583883	     -5.63185305	      7.89521228	      0.96601067	      0.91721998	      0.51864461	      0.07911957	      3.37419265	    -18.71449664	     13.45534772	     13.45534772	     17.15876315	     -6.13254659	     -2.83405164	     29.11978418	     -7.17160399	      3.84779680	     27.26808617	     27.26808617	      8.31073888	     -6.72602458	      2.32598415	     -8.82012223	      2.87767216	      2.11027044	     54.26104010	    -18.90467779	     -4.41497931	    105.84660764	     44.28551434	      0.00000000	      0.00000000	    -15.76884000	     -8.03196300	      3.65470100	     30.68506860	     45.13479356	      0.00000000	      0.00000000
     26.43892857	     -4.37153414	     -5.65398518	      7.91732462	      0.96670030	      0.91688917	      0.51415955	     -0.27501021	      3.11492389	    -18.78543544	     13.46359958	     13.46359958	     17.11286326	     -6.02889931	     -2.75159726	     29.07260348	     -6.88277357	      3.97259737	     28.02493348	     28.02493348	      8.63222867	     -7.29566695	      1.99986763	     -8.72290404	      2.80759070	      2.27495346	     54.33800626	    -18.52294901	     -4.28237769	    105.95192603	     44.28078522	      0.00000000	      0.00000000	    -14.99439079	     -8.16218833	      3.56674264	     31.05232065	     45.16184211	      0.00000000	      0.00000000
     26.45771429	     -4.48016959	     -5.78847003	      7.84953735	      0.96732475	      0.91663982	      0.50961894	     -0.56096115	      2.88690472	    -19.14557948	     13.58714043	     13.58714043	     17.16728904	     -5.30153791	     -2.53206121	     29.00136549	     -6.53481268	      4.71412921	     28.69561144	     28.69561144	      8.75105359	     -9.03911715	      1.79329099	     -8.66898273	      2.92425667	      2.47498977	     54.37988104	    -18.21212028	     -4.37792101	    106.14096390	     44.29596688	      0.00000000	      0.00000000	    -14.40252744	     -8.28920740	      3.03956620	     32.08100615	     45.25958967	      0.00000000	      0.00000000
     26.47650000	     -4.56990743	     -5.82699515	      7.66583518	      0.96798978	      0.91679325	      0.50533373	     -0.85828990	      2.60800314	    -19.09569434	     13.69094978	     13.69094978	     16.96046448	     -5.16448530	     -2.43417938	     28.77318573	     -6.33780966	      4.73032578	     29.15186154	     29.15186154	      9.12879962	     -9.48663025	      1.62294057	     -8.60898353	      2.87731969	      2.68832848	     54.18585981	    -17.77943308	     -4.18279577	    106.02210693	     44.29486313	      0.00000000	      0.00000000	    -13.41611116	     -8.46439157	      2.92124502	     32.57283710	     45.29307586	      0.00000000	      0.00000000
     26.49528571	     -4.68032288	     -5.85816148	      7.41013333	      0.96850309	      0.91714154	      0.50094844	     -1.04678875	      2.21363555	    -19.32981899	     13.97919704	     13.97919704	     16.85816332	     -4.44713005	     -2.26051213	     28.44279247	     -5.97337356	      5.20694271	     29.37724103	     29.37724103	      9.40544713	    -10.86087191	      2.07795943	     -8.52170373	      2.84965737	      3.02278815	     53.97510947	    -17.60913602	     -4.29787797	    105.27048806	     44.34049310	      0.00000000	      0.00000000	    -12.73516378	     -8.66155480	      2.16045718	     34.17971934	     45.42093212	      0.00000000	      0.00000000
     26.51407143	     -4.77972106	     -5.89802034	      7.08984370	      0.96894882	      0.91771254	      0.49681778	     -1.19156792	      1.84031057	    -19.38445495	     14.32586138	     14.32586138	     16.71868556	     -3.89278896	     -1.93640197	     28.08716441	     -5.79824498	      5.20613803	     29.55037199	     29.55037199	     10.02462696	    -11.25883523	      2.78631990	     -8.48956255	      2.84535735	      2.79810374	     53.89528815	    -16.71035966	     -3.93182176	    104.27067425	     44.41248117	      0.00000000	      0.00000000	    -12.45688809	     -8.70473782	      0.52474725	     36.41873952	     45.67224203	      0.00000000	      0.00000000
     26.53285714	     -4.89994253	     -5.94093396	      6.72206500	      0.96928572	      0.91844285	      0.49279383	     -1.24305236	      1.47055864	    -19.26950227	     14.74467948	     14.74467948	     16.37732927	     -3.68004544	     -1.94262872	     27.64648863	     -5.65361670	      5.14642176	     29.48839187	     29.48839187	     10.39651646	    -11.64437123	      2.92253040	     -8.38568389	      2.85439574	      3.15205296	     53.46226769	    -16.59277012	     -3.83243999	    103.33546306	     44.44833382	      0.00000000	      0.00000000	    -11.31759136	     -8.98466567	      0.14495661	     37.30362017	     45.74324988	      0.00000000	      0.00000000
     26.55164286	     -5.02182569	     -5.96628253	      6.32777085	      0.96944253	      0.91929086	      0.48887412	     -1.18495115	      1.04313115	    -19.16653077	     15.33562514	     15.33562514	     16.02952819	     -3.45154956	     -2.04366692	     27.15235133	     -5.52637662	      4.96278911	     29.29473361	     29.29473361	     10.75697043	    -11.92354288	      3.12073081	     -8.29205460	      2.85258876	      3.32978866	     53.02431268	    -16.32496845	     -3.72266041	    102.18092241	     44.49171442	      0.00000000	      0.00000000	    -10.28176078	     -9.27047946	     -0.28808678	     38.53509233	     45.81997151	      0.00000000	      0.00000000
     26.57042857	     -5.12160485	     -5.99549708	      5.92950943	      0.96950213	      0.92022702	      0.48495170	     -1.07760704	      0.59823391	    -19.03606754	     16.03028526	     16.03028526	     15.57551413	     -3.27926509	     -2.36397691	     26.62661155	     -5.41830790	      4.73301920	     29.07933109	     29.07933109	     11.20606701	    -12.02643570	      3.50033912	     -8.23252058	      2.88422629	      2.88505316	     52.86273583	    -15.40189034	     -3.35503942	    100.22222989	     44.57909137	      0.00000000	      0.00000000	     -9.93060747	     -9.57444128	     -1.29041036	     40.84271996	     45.97044205	      0.00000000	      0.00000000
     26.58921429	     -5.19610109	     -5.97455035	      5.51506172	      0.96945681	      0.92125426	      0.48112411	     -0.85188409	      0.08686209	    -18.75141225	     16.96942518	     16.96942518	     15.17601435	     -3.40236820	     -2.51093677	     25.99758209	     -5.31299125	      4.32207950	     28.70895482	     28.70895482	     11.51487106	    -11.97372801	      3.48598178	     -8.18908112	      2.87451182	      3.06772472	     52.17967829	    -15.37500590	     -3.24803690	     99.14482997	     44.61381694	      0.00000000	      0.00000000	     -8.60579270	     -9.93425403	     -1.53528018	     41.64606504	     46.02150043	      0.00000000	      0.00000000
     26.60800000	     -5.18572376	     -6.17007800	      5.22097980	      0.96932390	      0.92235714	      0.47733843	     -0.78003962	     -0.12743217	    -18.58167761	     17.71053679	     17.71053679	     14.70503463	     -3.43674790	     -2.55551895	     25.39737749	     -5.39114560	      4.11064305	     28.45128846	     28.45128846	     11.78323735	    -11.97947539	      3.46207951	     -8.28140273	      3.18849241	      2.93884500	     51.38131355	    -15.02558126	     -3.02865815	     98.55358169	     44.62360992	      0.00000000	      0.00000000	     -7.13685517	    -10.38424086	     -1.67186699	     42.28817086	     46.05848652	      0.00000000	      0.00000000
     26.62678571	     -5.30994610	     -5.86709119	      4.70735530	      0.96898211	      0.92318716	      0.47357892	      0.01934569	     -1.09431887	    -18.03941383	     19.62323733	     19.62323733	     14.35864331	     -4.17396306	     -3.06579795	     24.69119828	     -5.04779051	      3.36132784	     27.90688562	     27.90688562	     12.07921536	    -11.73078960	      3.37232818	     -8.14043156	      2.83744649	      3.15870554	     50.57164109	    -15.21895838	     -3.17332292	     96.31562448	     44.70250873	      0.00000000	      0.00000000	     -5.83693290	    -10.79106110	     -1.84228072	     43.26537874	     46.10181508	      0.00000000	      0.00000000
     26.64557143	     -5.30139589	     -5.78530494	      4.32258430	      0.96868226	      0.92406719	      0.46984540	      0.59480407	     -1.72815957	    -17.56577124	     21.29934221	     21.29934221	     13.84883271	     -4.94041829	     -3.50530651	     23.98995183	     -4.88801321	      2.84740891	     27.54178333	     27.54178333	     12.35818379	    -11.59143096	      3.26379474	     -8.13562445	      2.80805962	      2.99163655	     49.64111917	    -14.96111127	     -3.13576564	     94.52098746	     44.75977179	      0.00000000	      0.00000000	     -4.47298164	    -11.24830447	     -1.90662884	     43.96930568	     46.13233165	      0.00000000	      0.00000000
     26.66435714	     -5.28749231	     -5.68405548	      3.94944889	      0.96829014	      0.92481956	      0.46615238	      1.33762586	     -2.39077978	    -17.01962758	     23.25496566	     23.25496566	     13.24071262	     -6.02109963	     -4.05033582	     23.30255448	     -4.70001863	      2.31785400	     27.19203934	     27.19203934	     12.63902149	    -11.44962883	      3.13557390	     -8.13836523	      2.79653439	      2.76638491	     48.62108875	    -14.69106537	     -3.11404277	     92.55784560	     44.82246264	      0.00000000	      0.00000000	     -3.01462907	    -11.74815701	     -1.89256147	     44.46671642	     46.15447814	      0.00000000	      0.00000000
